<?xml version="1.0" encoding="utf-8"?>
<!-- Generator: Adobe Illustrator 21.1.0, SVG Export Plug-In . SVG Version: 6.00 Build 0)  -->
<svg version="1.1" id="Vrstva_1" xmlns="http://www.w3.org/2000/svg" xmlns:xlink="http://www.w3.org/1999/xlink" x="0px" y="0px"
	 viewBox="0 0 373.2 72" style="enable-background:new 0 0 373.2 72;" xml:space="preserve">
<style type="text/css">
	.st0{fill:#062854;}
	.st1{fill:#43932A;}
</style>
<g>
	<path class="st0" d="M111.2,49.1h7l-15-26.2h-6.3l-15,26.2h7l3-5.7h16.3L111.2,49.1z M94.4,38.7L100,28l5.6,10.6H94.4V38.7z"/>
	<path class="st0" d="M225.9,49.1h7l-15-26.2h-6.3l-15,26.2h7l3-5.7h16.3L225.9,49.1z M209,38.7l5.6-10.6l5.7,10.6H209z"/>
	<path class="st0" d="M319.9,49.1h8.7l-11.8-9.6h3.5c3.1,0,5.6-2.5,5.6-5.6v-5.4c0-3.1-2.5-5.6-5.6-5.6h-22.7v26.2h6v-9.6h6.1
		L319.9,49.1z M303.6,27.6h14.9c0.8,0,1.5,0.7,1.5,1.5v4.2c0,0.8-0.7,1.5-1.5,1.5h-14.9V27.6z"/>
	<polygon class="st0" points="257.6,22.9 227.4,22.9 227.4,27.6 239.6,27.6 239.6,49.1 245.5,49.1 245.5,27.6 257.6,27.6 	"/>
	<path class="st0" d="M284.9,22.9v21.5h-17.6V22.9h-6v21.7c0,2.5,2,4.5,4.5,4.5h20.4c2.5,0,4.5-2,4.5-4.5V22.9H284.9z"/>
	<polygon class="st0" points="186.5,22.9 186.5,22.9 175.4,37.4 164.3,22.9 158.3,22.9 158.3,49.1 164.3,49.1 164.3,31 174.2,44.5 
		176.6,44.5 186.5,31 186.5,49.1 192.5,49.1 192.5,22.9 	"/>
	<polygon class="st0" points="353.6,22.9 345.1,32.5 336.5,22.9 328.4,22.9 342.1,37.5 342.1,49.1 348,49.1 348,37.5 361.7,22.9 	
		"/>
	<path class="st0" d="M144.7,49.1h8.7l-11.8-9.6h3.5c3.1,0,5.6-2.5,5.6-5.6v-5.4c0-3.1-2.5-5.6-5.6-5.6h-22.7v26.2h6v-9.6h6.1
		L144.7,49.1z M128.4,27.6h14.9c0.8,0,1.5,0.7,1.5,1.5v4.2c0,0.8-0.7,1.5-1.5,1.5h-14.9V27.6z"/>
	<path class="st0" d="M369.1,22.9c-2.3,0-4.1,1.8-4.1,4.1s1.8,4.1,4.1,4.1c2.3,0,4.1-1.8,4.1-4.1S371.3,22.9,369.1,22.9 M369.1,30.4
		c-1.9,0-3.4-1.5-3.4-3.4s1.5-3.4,3.4-3.4s3.4,1.5,3.4,3.4S371,30.4,369.1,30.4"/>
	<path class="st0" d="M370,27.4c0.6,0,1.2-0.5,1.2-1.2s-0.6-1.3-1.3-1.3h-2.5v4.3h0.7v-1.8h1l1.1,1.8h0.9L370,27.4z M368.1,26.7
		v-1.1h1.8c0.3,0,0.6,0.3,0.6,0.6c0,0.3-0.3,0.6-0.6,0.6h-1.8V26.7z"/>
	<path class="st0" d="M333.7,64.5c0,1.4-1.1,2.5-2.5,2.5s-2.5-1.1-2.5-2.5v-5.3H327v5.3c0,2.3,1.9,4.2,4.2,4.2
		c2.3,0,4.2-1.9,4.2-4.2v-5.3h-1.8L333.7,64.5L333.7,64.5z"/>
	<path class="st0" d="M319.9,58.9c-2.7,0-4.9,2.2-4.9,4.9c0,2.7,2.2,4.9,4.9,4.9c2.7,0,4.9-2.2,4.9-4.9S322.7,58.9,319.9,58.9
		 M319.9,67c-1.7,0-3.1-1.4-3.1-3.1c0-1.7,1.4-3.1,3.1-3.1s3.1,1.4,3.1,3.1C323.1,65.6,321.7,67,319.9,67"/>
	<path class="st0" d="M343.1,58.9c-1.4,0-2.5,0.6-3.1,1.6v-1.3h-1.8V72h1.8v-4.9c0.7,1,1.7,1.6,3.1,1.6c2.7,0,4.9-2.2,4.9-4.9
		C348,61.1,345.8,58.9,343.1,58.9 M343.1,67c-1.7,0-3.1-1.4-3.1-3.1c0-1.7,1.4-3.1,3.1-3.1s3.1,1.4,3.1,3.1
		C346.3,65.6,344.9,67,343.1,67"/>
	<path class="st0" d="M311.1,60.8v-1.6h-1.8v9.3h1.8v-4.6c0-1.7,1-3.1,2.7-3.1V59C312.4,58.9,311.8,59.8,311.1,60.8"/>
	<path class="st0" d="M301.1,61.8v1.8h3.9c-0.6,2-2.4,3.4-4.6,3.4c-2.6,0-4.8-2.1-4.8-4.8c0-2.6,2.1-4.8,4.8-4.8
		c1.5,0,2.8,0.7,3.7,1.8l1.3-1.2c-1.2-1.5-3-2.4-5.1-2.4c-3.6,0-6.5,2.9-6.5,6.5s2.9,6.5,6.5,6.5s6.5-2.9,6.5-6.5c0-0.1,0-0.3,0-0.4
		h-5.7V61.8z"/>
	<path class="st1" d="M52.8,14.3c-23.1,0-39.8,20-34.4,28.6c4,6.4,13.7,3.7,24.9-3.2c0.1-0.1,0.3-0.1,0.4,0c0.1,0.1,0.2,0.2,0.2,0.3
		l-1.3,17c0,0.1,0,0.1,0.1,0.1s0.1,0,0.1-0.1l8.4-21.6c1-2.6-0.3-4-3.3-2.6c-9.7,4.5-17.8,9.4-20.8,4.6c-3.1-5,7.9-18.8,25.7-18.8
		c7.6,0,15.4,5.5,15.4,15.2c0,8.8-7.2,17-14.6,21.6C36,66.3,16.8,61.1,10.4,50.9C0.7,35.6,15.8,19.8,24,14.7
		c10.4-6.5,19.4-8.1,24.1-8.5c0.1,0,0.3-0.1,0.4-0.2l2.9-5c0.1-0.2,0.1-0.4,0-0.6C51.3,0.1,51,0,50.8,0C44.6,0.5,32.7,2.4,21,9.7
		C9.6,16.8-8,35.7,4,55c8.3,13.4,33.1,19.4,53.3,6.8c10-6.2,17.9-17,17.9-27.8C75.3,21.2,65,14.3,52.8,14.3"/>
</g>
</svg>
