<?xml version="1.0" encoding="utf-8"?>
<!-- Generator: Adobe Illustrator 21.0.2, SVG Export Plug-In . SVG Version: 6.00 Build 0)  -->
<svg version="1.1" id="Vrstva_1" xmlns="http://www.w3.org/2000/svg" xmlns:xlink="http://www.w3.org/1999/xlink" x="0px" y="0px"
	 viewBox="0 0 233.3 81.3" style="enable-background:new 0 0 233.3 81.3;" xml:space="preserve">
<style type="text/css">
	.st0{fill:none;}
	.st1{fill:#9BA0A3;}
	.st2{fill:#008296;}
</style>
<rect x="-21" y="-20.8" class="st0" width="283.5" height="102"/>
<g>
	<g>
		<g>
			<circle class="st1" cx="27.3" cy="17.7" r="6.3"/>
			<circle class="st1" cx="41.8" cy="17.7" r="6.3"/>
			<circle class="st1" cx="20" cy="30.2" r="6.3"/>
			<circle class="st1" cx="34.6" cy="30.2" r="6.3"/>
			<circle class="st1" cx="49.1" cy="30.2" r="6.3"/>
			<circle class="st1" cx="27.3" cy="42.8" r="6.3"/>
			<circle class="st1" cx="41.8" cy="42.8" r="6.3"/>
		</g>
		<polygon class="st2" points="27,51.5 32.1,60.3 52,60.3 69.3,30.2 52,0.2 17.3,0.2 0,30.2 0,30.2 0,30.2 0,30.2 29.4,81.2 
			39.5,81.2 10.1,30.2 22.4,9 46.9,9 59.2,30.2 46.9,51.5 		"/>
	</g>
	<g>
		<g>
			<path class="st2" d="M81.4,30.7c0-3.6,1-6.3,3.1-8.7c2.4-2.7,5.6-4.1,9.2-4.1c7.1,0,12.6,5.4,12.6,12.3c0,6.7-5.2,12.2-11.7,12.2
				c-1,0-1.8-0.2-3-0.6v-8.8c0.8,0.4,1.5,0.6,2.2,0.6c2,0,3.3-1.4,3.3-3.4c0-2.1-1.3-3.4-3.3-3.4c-1.4,0-2.6,0.7-3.1,1.9
				c-0.3,0.7-0.5,1.6-0.5,3.3v19.5h-8.8V30.7z"/>
			<path class="st2" d="M108.6,41.7V18.9h8.5v3c1.8-2.5,3.8-3.5,6.6-3.5h1.5v8.3c-0.6,0-1.1-0.1-1.3-0.1c-2.1,0-4.2,0.9-5.1,2.2
				c-0.9,1.3-1.3,2.7-1.3,5.3v7.7H108.6z"/>
			<path class="st2" d="M150.5,36.8c-3.6,3.8-7.6,5.7-11.9,5.7c-7,0-12.5-5.4-12.5-12.2c0-7,5.5-12.4,12.6-12.4
				c4.1,0,7.5,1.7,9.8,4.9c0.8,1.2,1.3,2.1,1.9,4L139,33.2l-2.6-4.6l4.4-2.5c-0.6-0.8-1.3-1.2-2.3-1.2c-2.3,0-3.9,1.9-3.9,4.6
				c0,3,1.7,5,4.5,5c2.1,0,3.6-0.7,5.7-2.7l0.3-0.3L150.5,36.8z"/>
			<path class="st2" d="M152.5,34.2h4.9c1.3,0,1.3,0,1.5-0.1c0.3-0.1,0.5-0.4,0.5-0.8c0-0.5-0.5-1-1.5-1.5l-0.6-0.3
				c-3.9-2-4.9-3.3-4.9-6.1c0-1.9,0.7-3.5,2-4.6c1.4-1.2,3-1.7,5.8-1.7h8.7v7.3h-4.7c-1,0-1.5,0.2-1.5,0.8c0,0.4,0.3,0.7,1.1,1.1
				l0.7,0.3c3.8,2,5.4,4,5.4,6.9c0,2-1,4.1-2.5,5.2c-1.4,1.1-2.4,1.3-5.9,1.3h-8.9V34.2z"/>
			<path class="st2" d="M181.5,30.9c0,2.4,0.7,3.1,3.1,3.1h1.8v7.7h-3.1c-4.2,0-5.7-0.3-7.6-1.7c-2.3-1.7-3.1-3.8-3.1-7.9V11.5h8.8
				v7.4h5v7.7h-5V30.9z"/>
			<path class="st2" d="M204.4,41.7V31.5c0-1.7-0.1-2.4-0.7-3.2c-0.5-0.9-1.7-1.4-2.8-1.4c-1.9,0-3.4,1.4-3.4,3.3
				c0,1.9,1.4,3.3,3.3,3.3c0.8,0,1.4-0.1,2.1-0.5v8.7c-0.9,0.6-1.8,0.8-3.2,0.8c-6.3,0-11.4-5.5-11.4-12.1c0-7.1,5.5-12.4,12.6-12.4
				c7.1,0,12.3,5.4,12.3,12.9v10.9H204.4z"/>
			<path class="st2" d="M216.4,41.7V18.9h8.5v3c1.8-2.5,3.8-3.5,6.6-3.5h1.5v8.3c-0.6,0-1.1-0.1-1.3-0.1c-2.1,0-4.2,0.9-5.1,2.2
				c-0.9,1.3-1.3,2.7-1.3,5.3v7.7H216.4z"/>
		</g>
	</g>
</g>
</svg>
